<svg xmlns="http://www.w3.org/2000/svg" viewBox="0 0 405 405"><defs><style>.cls-1,.cls-2{fill:none;stroke:#aa000b;stroke-miterlimit:10;}.cls-1{stroke-width:3px;}.cls-2{stroke-width:5px;}.cls-3{fill:#aa000b;}.cls-4{fill:#666;opacity:0.15;}</style></defs><title>Recurso 1</title><g id="Capa_2" data-name="Capa 2"><g id="Capa_1-2" data-name="Capa 1"><path class="cls-1" d="M143.85,49.69A92.41,92.41,0,0,1,167.68,34V27.2h25.39c2.32-.21,4.66-.34,7-.34,1,0,1.13,0,2.08,0s1.89,0,2.84,0c2.39,0,4.72.13,7,.34h25v6.64a90,90,0,0,1,21.52,13.8V27.2h42A198.9,198.9,0,0,0,215.19,1.91H189.81A198.9,198.9,0,0,0,104.37,27.2h39.48Z"/><path class="cls-1" d="M401.85,217.68c.42-5.34.65-10.73.65-16.18q0-5.13-.26-10.18H354.15V121.9H386a199.62,199.62,0,0,0-13.21-25.29H354.15V71.11A200.92,200.92,0,0,0,328,45.81v50.8H290.61c.21.75.43,1.49.63,2.22a67.68,67.68,0,0,1,2.11,23.07H328v69.42h-60.4c-2.5,5-5.15,10.19-8,15.72-8.14,16-15.49,30.45-22.57,42.36v.1h.3l-.3.56v37H216.8l-14.61,24.69L187.57,287.1H167.68V250.79l-.7-1.29h.36c-7.1-11.93-14.47-26.42-22.63-42.46-2.81-5.53-5.46-10.75-8-15.72H74.44V121.9H111a67.68,67.68,0,0,1,2.11-23.07c.2-.73.42-1.47.64-2.22H74.44V47.88A201.16,201.16,0,0,0,52.92,68.76V96.61H32.19A199.62,199.62,0,0,0,19,121.9H52.92v69.42H2.76q-.25,5.06-.26,10.18c0,5.45.23,10.84.65,16.18H52.92V287.1H21.7A200.07,200.07,0,0,0,36,312.39H52.92v21.85a201.16,201.16,0,0,0,21.52,20.88V314.65c0-.75,69.41,2.58,69.41,2.6V381.8h-28a200.5,200.5,0,0,0,173.34,0H258.61v-62c0-2.48,69.41-5.06,69.41-5.05,0,21.21,0,41.34,0,42.42,4.35-3.5,9-7.51,13.64-12.06q6.54-6.33,12.49-13.24v-19.5H369A200.07,200.07,0,0,0,383.3,287.1H354.15V217.68Zm-258,69.42H74.44V217.68h69.41Zm93.24,94.7H167.68v-65c0-1.46,69.41,1.62,69.41,1.64ZM328,287.1H258.61V217.68H328Z"/><circle class="cls-2" cx="202.5" cy="202.5" r="200"/><polygon class="cls-3" points="204.06 311.64 53 311.64 139.38 342.82 149.39 356.5 204.06 356.5 258.72 356.5 268.74 342.82 355.11 311.64 204.06 311.64"/><path class="cls-3" d="M293.13,99.42c-9-34.06-42.21-73.15-87.59-73.12-1,0-1.93,0-2.89,0s-1.14,0-2.11,0c-45.38,0-79.34,39.06-88.37,73.12-8.17,30.79,5.25,57.18,32.09,110,8.28,16.29,15.77,31,23,43.13h-.37l17.66,32.69,18.11,30.6,18.1-30.6,17.67-32.69h-.37c7.21-12.12,14.7-26.84,23-43.13C287.87,156.6,301.29,130.21,293.13,99.42Zm-90.48,57.87a42.09,42.09,0,1,1,42.08-42.09A42.09,42.09,0,0,1,202.65,157.29Z"/><path class="cls-4" d="M204.48,315.46l-83.77-236-.3.1a95.31,95.31,0,0,0-7.23,18.64c-8.21,31,5.29,57.52,32.29,110.6,8.33,16.4,15.86,31.21,23.12,43.4h-.37L186,285.12l15,25.36,3.45,5Z"/></g></g></svg>